<?xml version="1.0" encoding="UTF-8"?>
<svg xmlns="http://www.w3.org/2000/svg" xmlns:xlink="http://www.w3.org/1999/xlink" width="100px" height="px" viewBox="0 0 100 50" version="1.1">
<g id="surface1">
<path style=" stroke:none;fill-rule:nonzero;fill:rgb(13.333333%,13.333333%,13.333333%);fill-opacity:1;" d="M 0.648438 33.042969 L 0.648438 21.898438 L 14.546875 21.898438 L 14.546875 21.25 L 0.648438 21.25 L 0.648438 11.082031 L 15.425781 11.082031 L 15.425781 10.433594 L 0 10.433594 L 0 33.695312 L 15.554688 33.695312 L 15.554688 33.042969 Z M 28.082031 16.949219 L 22.324219 24.539062 L 16.691406 16.949219 L 15.847656 16.949219 L 21.933594 25.027344 L 15.261719 33.695312 L 16.042969 33.695312 L 22.324219 25.515625 L 28.636719 33.695312 L 29.449219 33.695312 L 22.746094 25.027344 L 28.863281 16.945312 L 28.082031 16.945312 Z M 31.402344 39.429688 L 31.402344 29.003906 L 31.46875 29.003906 C 31.859375 30.523438 32.628906 31.746094 33.777344 32.667969 C 34.929688 33.589844 36.390625 34.050781 38.171875 34.050781 C 39.320312 34.050781 40.339844 33.820312 41.230469 33.351562 C 42.121094 32.886719 42.863281 32.25 43.460938 31.445312 C 44.054688 30.644531 44.511719 29.710938 44.828125 28.644531 C 45.140625 27.582031 45.296875 26.460938 45.296875 25.289062 C 45.296875 24.027344 45.136719 22.867188 44.808594 21.800781 C 44.484375 20.738281 44.011719 19.816406 43.394531 19.035156 C 42.777344 18.25 42.027344 17.644531 41.148438 17.210938 C 40.269531 16.773438 39.277344 16.558594 38.171875 16.558594 C 37.324219 16.558594 36.539062 16.683594 35.8125 16.933594 C 35.085938 17.183594 34.441406 17.535156 33.875 17.992188 C 33.308594 18.449219 32.816406 18.992188 32.410156 19.601562 C 32 20.222656 31.683594 20.902344 31.46875 21.640625 L 31.402344 21.640625 L 31.402344 16.949219 L 30.753906 16.949219 L 30.753906 39.429688 Z M 38.171875 33.433594 C 36.132812 33.433594 34.492188 32.734375 33.257812 31.332031 C 32.019531 29.929688 31.402344 27.917969 31.402344 25.289062 C 31.402344 24.203125 31.554688 23.171875 31.859375 22.195312 C 32.164062 21.214844 32.601562 20.359375 33.175781 19.621094 C 33.75 18.882812 34.460938 18.292969 35.308594 17.859375 C 36.152344 17.425781 37.109375 17.207031 38.171875 17.207031 C 39.257812 17.207031 40.203125 17.425781 41.019531 17.859375 C 41.832031 18.292969 42.503906 18.886719 43.035156 19.636719 C 43.566406 20.386719 43.96875 21.242188 44.238281 22.210938 C 44.511719 23.175781 44.648438 24.203125 44.648438 25.289062 C 44.648438 26.265625 44.523438 27.238281 44.273438 28.203125 C 44.023438 29.171875 43.636719 30.039062 43.117188 30.8125 C 42.597656 31.582031 41.929688 32.210938 41.117188 32.699219 C 40.300781 33.191406 39.320312 33.433594 38.171875 33.433594 Z M 48.878906 33.695312 L 48.878906 24.214844 C 48.878906 23.300781 49.007812 22.410156 49.269531 21.542969 C 49.527344 20.671875 49.929688 19.90625 50.472656 19.246094 C 51.015625 18.582031 51.703125 18.0625 52.539062 17.679688 C 53.375 17.300781 54.367188 17.144531 55.515625 17.207031 L 55.515625 16.554688 C 54.519531 16.535156 53.644531 16.644531 52.894531 16.882812 C 52.148438 17.121094 51.503906 17.445312 50.960938 17.859375 C 50.417969 18.273438 49.984375 18.753906 49.660156 19.308594 C 49.332031 19.863281 49.09375 20.460938 48.941406 21.085938 L 48.878906 21.085938 L 48.878906 16.949219 L 48.226562 16.949219 L 48.226562 33.695312 Z M 56.328125 25.449219 L 70.320312 25.449219 C 70.367188 24.300781 70.253906 23.191406 69.980469 22.128906 C 69.707031 21.0625 69.273438 20.117188 68.679688 19.292969 C 68.082031 18.46875 67.3125 17.804688 66.367188 17.304688 C 65.425781 16.808594 64.300781 16.554688 63 16.554688 C 62.066406 16.554688 61.15625 16.753906 60.265625 17.144531 C 59.378906 17.535156 58.597656 18.105469 57.925781 18.855469 C 57.25 19.601562 56.707031 20.519531 56.296875 21.605469 C 55.882812 22.691406 55.679688 23.929688 55.679688 25.320312 C 55.679688 26.558594 55.820312 27.714844 56.101562 28.792969 C 56.382812 29.867188 56.816406 30.800781 57.402344 31.59375 C 57.988281 32.386719 58.742188 33 59.664062 33.433594 C 60.585938 33.867188 61.699219 34.074219 63 34.050781 C 64.910156 34.050781 66.515625 33.515625 67.816406 32.441406 C 69.117188 31.363281 69.890625 29.847656 70.125 27.894531 L 69.476562 27.894531 C 69.195312 29.742188 68.472656 31.125 67.3125 32.046875 C 66.152344 32.972656 64.691406 33.433594 62.933594 33.433594 C 61.742188 33.433594 60.734375 33.226562 59.910156 32.816406 C 59.085938 32.402344 58.410156 31.835938 57.890625 31.121094 C 57.371094 30.402344 56.984375 29.5625 56.734375 28.59375 C 56.488281 27.628906 56.351562 26.582031 56.328125 25.449219 Z M 69.671875 24.800781 L 56.328125 24.800781 C 56.394531 23.625 56.609375 22.574219 56.980469 21.640625 C 57.347656 20.707031 57.832031 19.90625 58.429688 19.246094 C 59.023438 18.582031 59.71875 18.078125 60.511719 17.730469 C 61.304688 17.382812 62.152344 17.207031 63.066406 17.207031 C 64.148438 17.207031 65.105469 17.410156 65.929688 17.8125 C 66.753906 18.214844 67.441406 18.761719 67.996094 19.457031 C 68.546875 20.152344 68.964844 20.960938 69.246094 21.882812 C 69.53125 22.804688 69.671875 23.777344 69.671875 24.800781 Z M 83.828125 21.898438 L 84.476562 21.898438 C 84.476562 20.03125 83.933594 18.675781 82.851562 17.828125 C 81.765625 16.980469 80.292969 16.554688 78.425781 16.554688 C 77.382812 16.554688 76.503906 16.6875 75.789062 16.949219 C 75.074219 17.207031 74.488281 17.546875 74.03125 17.957031 C 73.578125 18.371094 73.25 18.828125 73.054688 19.328125 C 72.859375 19.828125 72.761719 20.304688 72.761719 20.761719 C 72.761719 21.671875 72.925781 22.398438 73.25 22.941406 C 73.578125 23.484375 74.085938 23.910156 74.78125 24.214844 C 75.257812 24.429688 75.800781 24.625 76.40625 24.800781 C 77.015625 24.972656 77.71875 25.160156 78.523438 25.351562 C 79.238281 25.527344 79.945312 25.703125 80.636719 25.875 C 81.332031 26.050781 81.945312 26.28125 82.476562 26.574219 C 83.007812 26.867188 83.441406 27.242188 83.777344 27.699219 C 84.113281 28.15625 84.28125 28.753906 84.28125 29.492188 C 84.28125 30.207031 84.113281 30.816406 83.777344 31.316406 C 83.445312 31.8125 83.007812 32.230469 82.492188 32.539062 C 81.972656 32.851562 81.390625 33.082031 80.753906 33.222656 C 80.109375 33.363281 79.488281 33.433594 78.882812 33.433594 C 76.90625 33.433594 75.394531 32.992188 74.339844 32.113281 C 73.289062 31.234375 72.761719 29.847656 72.761719 27.960938 L 72.113281 27.960938 C 72.113281 30.066406 72.679688 31.609375 73.820312 32.585938 C 74.960938 33.5625 76.644531 34.050781 78.882812 34.050781 C 79.597656 34.050781 80.316406 33.972656 81.046875 33.808594 C 81.773438 33.644531 82.421875 33.378906 82.996094 33.007812 C 83.566406 32.644531 84.046875 32.15625 84.398438 31.578125 C 84.753906 30.992188 84.933594 30.273438 84.933594 29.425781 C 84.933594 28.621094 84.777344 27.972656 84.460938 27.472656 C 84.148438 26.972656 83.734375 26.558594 83.226562 26.234375 C 82.714844 25.90625 82.140625 25.652344 81.5 25.46875 C 80.855469 25.28125 80.210938 25.101562 79.5625 24.929688 C 78.765625 24.722656 77.96875 24.515625 77.171875 24.3125 C 76.488281 24.136719 75.855469 23.929688 75.269531 23.691406 C 74.703125 23.453125 74.253906 23.109375 73.917969 22.664062 C 73.582031 22.21875 73.414062 21.585938 73.414062 20.761719 C 73.414062 20.609375 73.457031 20.335938 73.542969 19.945312 C 73.628906 19.554688 73.835938 19.15625 74.160156 18.753906 C 74.488281 18.355469 74.988281 17.996094 75.660156 17.679688 C 76.332031 17.367188 77.253906 17.207031 78.425781 17.207031 C 79.226562 17.207031 79.960938 17.296875 80.621094 17.46875 C 81.28125 17.644531 81.851562 17.917969 82.328125 18.300781 C 82.808594 18.679688 83.175781 19.164062 83.4375 19.75 C 83.695312 20.335938 83.828125 21.054688 83.828125 21.898438 Z M 98.894531 21.898438 L 99.542969 21.898438 C 99.542969 20.03125 99.003906 18.675781 97.917969 17.828125 C 96.832031 16.980469 95.355469 16.554688 93.492188 16.554688 C 92.449219 16.554688 91.570312 16.6875 90.855469 16.949219 C 90.140625 17.207031 89.554688 17.546875 89.097656 17.957031 C 88.644531 18.371094 88.316406 18.828125 88.121094 19.328125 C 87.925781 19.828125 87.828125 20.304688 87.828125 20.761719 C 87.828125 21.671875 87.992188 22.398438 88.316406 22.941406 C 88.644531 23.484375 89.152344 23.910156 89.847656 24.214844 C 90.324219 24.429688 90.867188 24.625 91.472656 24.800781 C 92.082031 24.972656 92.785156 25.160156 93.589844 25.351562 C 94.304688 25.527344 95.011719 25.703125 95.703125 25.875 C 96.398438 26.050781 97.011719 26.28125 97.542969 26.574219 C 98.074219 26.867188 98.507812 27.242188 98.84375 27.699219 C 99.179688 28.15625 99.351562 28.753906 99.351562 29.492188 C 99.351562 30.207031 99.179688 30.816406 98.84375 31.316406 C 98.511719 31.8125 98.074219 32.230469 97.558594 32.539062 C 97.039062 32.851562 96.457031 33.082031 95.816406 33.222656 C 95.179688 33.363281 94.554688 33.433594 93.945312 33.433594 C 91.972656 33.433594 90.460938 32.992188 89.40625 32.113281 C 88.355469 31.234375 87.828125 29.847656 87.828125 27.960938 L 87.179688 27.960938 C 87.179688 30.066406 87.75 31.609375 88.886719 32.585938 C 90.027344 33.5625 91.710938 34.050781 93.945312 34.050781 C 94.664062 34.050781 95.382812 33.972656 96.109375 33.808594 C 96.835938 33.644531 97.488281 33.378906 98.0625 33.007812 C 98.632812 32.644531 99.113281 32.15625 99.464844 31.578125 C 99.820312 30.992188 100 30.273438 100 29.425781 C 100 28.621094 99.84375 27.972656 99.527344 27.472656 C 99.214844 26.972656 98.800781 26.558594 98.292969 26.234375 C 97.78125 25.90625 97.207031 25.652344 96.566406 25.46875 C 95.921875 25.28125 95.277344 25.101562 94.628906 24.929688 C 93.835938 24.722656 93.035156 24.515625 92.238281 24.3125 C 91.554688 24.136719 90.921875 23.929688 90.335938 23.691406 C 89.769531 23.453125 89.320312 23.109375 88.984375 22.664062 C 88.648438 22.21875 88.480469 21.585938 88.480469 20.761719 C 88.480469 20.609375 88.523438 20.335938 88.609375 19.945312 C 88.695312 19.554688 88.902344 19.15625 89.230469 18.753906 C 89.554688 18.355469 90.054688 17.996094 90.726562 17.679688 C 91.398438 17.367188 92.320312 17.207031 93.492188 17.207031 C 94.292969 17.207031 95.027344 17.296875 95.6875 17.46875 C 96.351562 17.644531 96.917969 17.917969 97.398438 18.300781 C 97.875 18.679688 98.242188 19.164062 98.503906 19.75 C 98.761719 20.335938 98.894531 21.054688 98.894531 21.898438 Z M 98.894531 21.898438 "/>
</g>
</svg>
