<?xml version="1.0" encoding="UTF-8"?>
<svg xmlns="http://www.w3.org/2000/svg" xmlns:xlink="http://www.w3.org/1999/xlink" width="100px" height="px" viewBox="0 0 100 50" version="1.1">
<g id="surface1">
<path style=" stroke:none;fill-rule:evenodd;fill:rgb(55.686275%,44.313725%,30.588235%);fill-opacity:1;" d="M 93.109375 22.546875 C 93.019531 22.566406 92.925781 22.761719 92.925781 22.871094 C 92.910156 23.59375 92.890625 25.507812 92.890625 26.808594 C 92.890625 26.84375 92.945312 26.917969 93 26.917969 C 93.269531 26.933594 93.917969 26.953125 94.476562 26.953125 C 95.253906 26.953125 95.703125 26.84375 95.957031 26.738281 C 96.605469 26.410156 96.910156 25.707031 96.910156 24.929688 C 96.910156 23.179688 95.683594 22.511719 93.863281 22.511719 C 93.738281 22.492188 93.378906 22.492188 93.109375 22.546875 Z M 97.757812 30.621094 C 97.757812 28.832031 96.441406 27.839844 94.0625 27.839844 C 93.957031 27.839844 93.199219 27.820312 93.019531 27.855469 C 92.964844 27.875 92.890625 27.910156 92.890625 27.964844 C 92.890625 29.246094 92.875 31.285156 92.925781 32.082031 C 92.964844 32.425781 93.214844 32.914062 93.523438 33.058594 C 93.847656 33.238281 94.585938 33.273438 95.089844 33.273438 C 96.515625 33.273438 97.757812 32.480469 97.757812 30.621094 Z M 89.433594 21.554688 C 89.613281 21.554688 90.152344 21.605469 91.539062 21.605469 C 92.855469 21.605469 93.902344 21.570312 95.179688 21.570312 C 96.75 21.570312 98.910156 22.132812 98.910156 24.480469 C 98.910156 25.636719 98.101562 26.554688 97.035156 27.007812 C 96.984375 27.027344 96.984375 27.0625 97.035156 27.078125 C 98.550781 27.457031 99.886719 28.398438 99.886719 30.167969 C 99.886719 31.902344 98.804688 33.003906 97.234375 33.6875 C 96.28125 34.105469 95.089844 34.25 93.882812 34.25 C 92.964844 34.25 90.496094 34.140625 89.125 34.175781 C 88.980469 34.121094 89.25 33.472656 89.378906 33.363281 C 89.703125 33.347656 89.953125 33.328125 90.296875 33.21875 C 90.785156 33.09375 90.835938 32.949219 90.910156 32.207031 C 90.945312 31.574219 90.945312 29.335938 90.945312 27.746094 C 90.945312 25.5625 90.964844 24.082031 90.945312 23.359375 C 90.925781 22.800781 90.730469 22.617188 90.332031 22.511719 C 90.027344 22.457031 89.519531 22.382812 89.105469 22.332031 C 89.015625 22.238281 89.324219 21.625 89.433594 21.554688 Z M 79.03125 32.785156 C 79.464844 33.128906 80.3125 33.273438 81.066406 33.273438 C 82.042969 33.273438 83.015625 33.09375 83.953125 32.246094 C 84.90625 31.378906 85.574219 30.042969 85.574219 27.910156 C 85.574219 25.871094 84.800781 24.207031 83.214844 23.234375 C 82.3125 22.671875 81.160156 22.4375 79.824219 22.4375 C 79.429688 22.4375 79.050781 22.457031 78.816406 22.566406 C 78.761719 22.601562 78.636719 22.761719 78.636719 22.855469 C 78.597656 23.214844 78.597656 25.996094 78.597656 27.621094 C 78.597656 29.300781 78.597656 31.648438 78.636719 31.917969 C 78.636719 32.191406 78.761719 32.605469 79.03125 32.785156 Z M 74.941406 21.554688 C 75.28125 21.554688 76.597656 21.605469 77.230469 21.605469 C 78.363281 21.605469 79.175781 21.554688 81.320312 21.554688 C 83.121094 21.554688 84.636719 22.042969 85.71875 22.960938 C 87.035156 24.097656 87.71875 25.671875 87.71875 27.585938 C 87.71875 30.3125 86.476562 31.882812 85.230469 32.785156 C 83.988281 33.707031 82.367188 34.25 80.058594 34.25 C 78.832031 34.25 76.722656 34.214844 74.976562 34.195312 L 74.957031 34.195312 C 74.867188 34.03125 75.101562 33.398438 75.246094 33.382812 C 75.714844 33.328125 75.839844 33.308594 76.074219 33.21875 C 76.453125 33.074219 76.527344 32.875 76.582031 32.207031 C 76.632812 30.960938 76.617188 29.464844 76.617188 27.765625 C 76.617188 26.554688 76.632812 24.191406 76.597656 23.433594 C 76.542969 22.800781 76.273438 22.636719 75.734375 22.527344 C 75.464844 22.472656 75.101562 22.402344 74.597656 22.347656 C 74.527344 22.222656 74.851562 21.660156 74.941406 21.554688 Z M 74.941406 21.554688 "/>
<path style=" stroke:none;fill-rule:evenodd;fill:rgb(26.666667%,17.647059%,13.333333%);fill-opacity:1;" d="M 53.132812 33.488281 C 52.679688 33.4375 52.355469 33.363281 51.960938 33.183594 C 51.90625 33.148438 51.816406 32.964844 51.816406 32.894531 C 51.78125 32.261719 51.78125 30.457031 51.78125 29.246094 C 51.78125 28.269531 51.617188 27.421875 51.203125 26.828125 C 50.714844 26.140625 50.011719 25.742188 49.113281 25.742188 C 48.320312 25.742188 47.253906 26.285156 46.371094 27.042969 C 46.355469 27.0625 46.210938 27.1875 46.230469 26.988281 C 46.230469 26.789062 46.265625 26.394531 46.28125 26.121094 C 46.300781 25.871094 46.15625 25.742188 46.15625 25.742188 C 45.578125 26.03125 43.957031 26.410156 43.363281 26.464844 C 42.929688 26.554688 42.820312 26.972656 43.273438 27.113281 L 43.289062 27.113281 C 43.777344 27.261719 44.101562 27.421875 44.355469 27.585938 C 44.535156 27.730469 44.515625 27.929688 44.515625 28.089844 C 44.535156 29.445312 44.535156 31.523438 44.480469 32.660156 C 44.460938 33.113281 44.335938 33.273438 44.011719 33.347656 L 44.046875 33.328125 C 43.792969 33.382812 43.597656 33.4375 43.289062 33.472656 C 43.183594 33.582031 43.183594 34.160156 43.289062 34.285156 C 43.488281 34.285156 44.535156 34.230469 45.398438 34.230469 C 46.589844 34.230469 47.203125 34.285156 47.507812 34.285156 C 47.632812 34.140625 47.671875 33.597656 47.597656 33.472656 C 47.253906 33.453125 47.003906 33.417969 46.769531 33.347656 C 46.445312 33.273438 46.355469 33.113281 46.335938 32.730469 C 46.300781 31.773438 46.300781 29.753906 46.300781 28.378906 C 46.300781 28 46.410156 27.820312 46.515625 27.710938 C 46.929688 27.351562 47.597656 27.097656 48.191406 27.097656 C 48.769531 27.097656 49.148438 27.277344 49.4375 27.511719 C 49.832031 27.839844 49.957031 28.308594 50.011719 28.652344 C 50.105469 29.425781 50.066406 30.960938 50.066406 32.296875 C 50.066406 33.019531 50.011719 33.199219 49.742188 33.292969 C 49.617188 33.347656 49.292969 33.417969 48.914062 33.453125 C 48.789062 33.582031 48.824219 34.140625 48.914062 34.265625 C 49.4375 34.265625 50.050781 34.214844 50.949219 34.214844 C 52.066406 34.214844 52.789062 34.265625 53.078125 34.265625 C 53.167969 34.160156 53.203125 33.636719 53.132812 33.488281 Z M 58.125 26.589844 C 57.167969 26.589844 56.574219 27.332031 56.574219 28.488281 C 56.574219 29.660156 57.097656 31.015625 58.574219 31.015625 C 58.828125 31.015625 59.296875 30.90625 59.511719 30.65625 C 59.855469 30.332031 60.089844 29.679688 60.089844 28.992188 C 60.089844 27.496094 59.347656 26.589844 58.125 26.589844 Z M 57.996094 34.574219 C 57.636719 34.574219 57.386719 34.683594 57.222656 34.773438 C 56.464844 35.261719 56.125 35.730469 56.125 36.289062 C 56.125 36.8125 56.320312 37.230469 56.753906 37.589844 C 57.277344 38.042969 57.996094 38.257812 58.917969 38.257812 C 60.753906 38.257812 61.566406 37.265625 61.566406 36.289062 C 61.566406 35.601562 61.222656 35.152344 60.519531 34.898438 C 60.015625 34.683594 59.097656 34.574219 57.996094 34.574219 Z M 58.125 39.269531 C 57.023438 39.269531 56.230469 39.035156 55.546875 38.511719 C 54.878906 38.003906 54.589844 37.246094 54.589844 36.722656 C 54.589844 36.578125 54.628906 36.179688 54.953125 35.820312 C 55.148438 35.601562 55.582031 35.1875 56.609375 34.484375 C 56.644531 34.464844 56.664062 34.449219 56.664062 34.410156 C 56.664062 34.375 56.628906 34.339844 56.589844 34.320312 C 55.746094 33.996094 55.492188 33.472656 55.421875 33.183594 L 55.421875 33.148438 C 55.402344 33.039062 55.367188 32.929688 55.527344 32.824219 C 55.65625 32.730469 55.835938 32.625 56.035156 32.496094 C 56.339844 32.316406 56.664062 32.117188 56.863281 31.957031 C 56.898438 31.917969 56.898438 31.882812 56.898438 31.847656 C 56.898438 31.808594 56.863281 31.773438 56.824219 31.757812 C 55.566406 31.339844 54.933594 30.402344 54.933594 28.992188 C 54.933594 28.074219 55.347656 27.242188 56.085938 26.71875 C 56.589844 26.320312 57.855469 25.832031 58.683594 25.832031 L 58.738281 25.832031 C 59.582031 25.851562 60.050781 26.03125 60.71875 26.265625 C 61.082031 26.394531 61.421875 26.449219 61.890625 26.449219 C 62.59375 26.449219 62.902344 26.230469 63.152344 25.976562 C 63.171875 26.011719 63.207031 26.105469 63.222656 26.339844 C 63.242188 26.574219 63.171875 26.917969 62.988281 27.167969 C 62.847656 27.367188 62.523438 27.511719 62.199219 27.511719 L 62.105469 27.511719 C 61.78125 27.476562 61.636719 27.441406 61.636719 27.441406 L 61.566406 27.476562 C 61.550781 27.511719 61.566406 27.550781 61.585938 27.601562 L 61.601562 27.640625 C 61.636719 27.800781 61.710938 28.289062 61.710938 28.417969 C 61.710938 29.894531 61.117188 30.546875 60.484375 31.035156 C 59.871094 31.484375 59.167969 31.773438 58.375 31.847656 C 58.359375 31.847656 58.285156 31.847656 58.125 31.863281 C 58.035156 31.863281 57.90625 31.882812 57.890625 31.882812 L 57.871094 31.882812 C 57.726562 31.917969 57.367188 32.097656 57.367188 32.40625 C 57.367188 32.675781 57.527344 33.003906 58.304688 33.058594 C 58.464844 33.074219 58.628906 33.074219 58.808594 33.09375 C 59.835938 33.164062 61.117188 33.253906 61.710938 33.453125 C 62.539062 33.761719 63.0625 34.5 63.0625 35.386719 C 63.0625 36.722656 62.105469 37.96875 60.519531 38.746094 C 59.746094 39.089844 58.972656 39.269531 58.125 39.269531 Z M 68.398438 26.683594 C 68.019531 26.683594 67.675781 26.773438 67.425781 26.953125 C 66.722656 27.386719 66.359375 28.253906 66.359375 29.515625 C 66.359375 31.882812 67.550781 33.542969 69.246094 33.542969 C 69.75 33.542969 70.144531 33.398438 70.488281 33.113281 C 71.011719 32.675781 71.28125 31.808594 71.28125 30.601562 C 71.28125 28.253906 70.109375 26.683594 68.398438 26.683594 Z M 68.722656 34.410156 C 65.660156 34.410156 64.558594 32.152344 64.558594 30.042969 C 64.558594 28.558594 65.152344 27.421875 66.34375 26.609375 C 67.191406 26.085938 68.199219 25.796875 69.101562 25.796875 C 71.441406 25.796875 73.082031 27.476562 73.082031 29.894531 C 73.082031 31.539062 72.433594 32.839844 71.191406 33.636719 C 70.597656 34.03125 69.570312 34.410156 68.722656 34.410156 Z M 36.605469 26.683594 C 36.226562 26.683594 35.882812 26.773438 35.628906 26.953125 C 34.925781 27.386719 34.566406 28.253906 34.566406 29.515625 C 34.566406 31.882812 35.757812 33.542969 37.449219 33.542969 C 37.957031 33.542969 38.351562 33.398438 38.695312 33.113281 C 39.214844 32.675781 39.488281 31.808594 39.488281 30.601562 C 39.488281 28.253906 38.332031 26.683594 36.605469 26.683594 Z M 36.929688 34.410156 C 33.863281 34.410156 32.765625 32.152344 32.765625 30.042969 C 32.765625 28.558594 33.359375 27.421875 34.550781 26.609375 C 35.394531 26.085938 36.40625 25.796875 37.308594 25.796875 C 39.648438 25.796875 41.289062 27.476562 41.289062 29.894531 C 41.289062 31.539062 40.640625 32.839844 39.398438 33.636719 C 38.820312 34.03125 37.792969 34.410156 36.929688 34.410156 Z M 16.328125 34.230469 C 16.292969 34.175781 16.253906 34.015625 16.273438 33.816406 C 16.273438 33.671875 16.308594 33.582031 16.328125 33.542969 C 16.707031 33.488281 16.902344 33.4375 17.121094 33.382812 C 17.480469 33.292969 17.625 33.09375 17.644531 32.640625 C 17.695312 31.558594 17.695312 29.5 17.679688 28.074219 L 17.679688 28.035156 C 17.679688 27.875 17.679688 27.675781 17.480469 27.53125 C 17.191406 27.351562 16.847656 27.1875 16.398438 27.0625 C 16.238281 27.007812 16.128906 26.917969 16.144531 26.808594 C 16.144531 26.699219 16.253906 26.574219 16.488281 26.539062 C 17.082031 26.484375 18.632812 26.105469 19.246094 25.832031 C 19.28125 25.871094 19.335938 25.976562 19.335938 26.121094 L 19.320312 26.320312 C 19.300781 26.519531 19.28125 26.753906 19.28125 26.988281 C 19.28125 27.0625 19.355469 27.113281 19.425781 27.113281 C 19.464844 27.113281 19.5 27.097656 19.535156 27.078125 C 20.6875 26.175781 21.734375 25.851562 22.273438 25.851562 C 23.160156 25.851562 23.84375 26.265625 24.367188 27.132812 C 24.402344 27.1875 24.4375 27.207031 24.492188 27.207031 C 24.527344 27.207031 24.582031 27.1875 24.597656 27.152344 C 25.664062 26.339844 26.726562 25.851562 27.429688 25.851562 C 29.105469 25.851562 30.097656 27.097656 30.097656 29.210938 C 30.097656 29.804688 30.097656 30.582031 30.078125 31.285156 C 30.078125 31.917969 30.0625 32.496094 30.0625 32.914062 C 30.0625 33.003906 30.1875 33.292969 30.386719 33.347656 C 30.636719 33.472656 30.980469 33.527344 31.429688 33.597656 L 31.449219 33.597656 C 31.484375 33.726562 31.414062 34.195312 31.339844 34.285156 C 31.230469 34.285156 31.070312 34.285156 30.890625 34.265625 C 30.546875 34.25 30.0625 34.230469 29.519531 34.230469 C 28.402344 34.230469 27.824219 34.25 27.265625 34.285156 C 27.230469 34.140625 27.214844 33.707031 27.265625 33.597656 C 27.589844 33.542969 27.753906 33.488281 27.953125 33.4375 C 28.3125 33.328125 28.402344 33.164062 28.421875 32.695312 C 28.421875 32.351562 28.492188 29.425781 28.386719 28.722656 C 28.277344 28 27.734375 27.152344 26.546875 27.152344 C 26.097656 27.152344 25.394531 27.332031 24.707031 27.855469 C 24.671875 27.890625 24.636719 27.980469 24.636719 28.035156 L 24.636719 28.054688 C 24.707031 28.433594 24.707031 28.867188 24.707031 29.535156 L 24.707031 30.707031 C 24.707031 31.523438 24.691406 32.28125 24.707031 32.859375 C 24.707031 33.253906 24.941406 33.347656 25.140625 33.417969 C 25.25 33.4375 25.320312 33.453125 25.410156 33.472656 C 25.574219 33.507812 25.734375 33.542969 25.988281 33.597656 C 26.023438 33.671875 26.023438 33.90625 25.96875 34.105469 C 25.953125 34.214844 25.914062 34.265625 25.898438 34.285156 C 25.285156 34.265625 24.652344 34.25 23.734375 34.25 C 23.464844 34.25 22.996094 34.265625 22.597656 34.265625 C 22.273438 34.265625 21.96875 34.285156 21.789062 34.285156 C 21.769531 34.25 21.734375 34.121094 21.734375 33.925781 C 21.734375 33.761719 21.769531 33.636719 21.804688 33.597656 C 21.894531 33.582031 21.96875 33.5625 22.058594 33.5625 C 22.273438 33.527344 22.457031 33.488281 22.636719 33.453125 C 22.941406 33.363281 23.050781 33.199219 23.066406 32.804688 C 23.121094 31.902344 23.175781 29.320312 23.050781 28.667969 C 22.832031 27.621094 22.238281 27.097656 21.285156 27.097656 C 20.722656 27.097656 20.019531 27.367188 19.445312 27.800781 C 19.355469 27.875 19.28125 28.054688 19.28125 28.21875 L 19.28125 29.28125 C 19.28125 30.582031 19.28125 32.207031 19.300781 32.914062 C 19.320312 33.128906 19.390625 33.382812 19.804688 33.472656 C 19.894531 33.488281 20.039062 33.527344 20.21875 33.542969 L 20.542969 33.597656 C 20.582031 33.707031 20.5625 34.140625 20.488281 34.285156 C 20.308594 34.285156 20.09375 34.265625 19.839844 34.265625 C 19.464844 34.25 18.976562 34.230469 18.433594 34.230469 C 17.804688 34.230469 17.355469 34.25 16.992188 34.265625 C 16.742188 34.230469 16.542969 34.230469 16.328125 34.230469 Z M 16.328125 34.230469 "/>
<path style=" stroke:none;fill-rule:evenodd;fill:rgb(100%,100%,100%);fill-opacity:1;" d="M 6.847656 38.566406 L 6.105469 38.3125 C 6.105469 38.3125 6.199219 34.539062 4.847656 34.265625 C 3.945312 33.21875 4.988281 -10.160156 8.234375 34.121094 C 8.234375 34.121094 7.117188 34.683594 6.917969 35.640625 C 6.703125 36.578125 6.847656 38.566406 6.847656 38.566406 Z M 6.847656 38.566406 "/>
<path style=" stroke:none;fill-rule:evenodd;fill:rgb(65.098039%,63.921569%,52.156863%);fill-opacity:1;" d="M 6.847656 38.566406 L 6.105469 38.3125 C 6.105469 38.3125 6.199219 34.539062 4.847656 34.265625 C 3.945312 33.21875 4.988281 -10.160156 8.234375 34.121094 C 8.234375 34.121094 7.117188 34.683594 6.917969 35.640625 C 6.703125 36.578125 6.847656 38.566406 6.847656 38.566406 Z M 6.847656 38.566406 "/>
<path style=" stroke:none;fill-rule:evenodd;fill:rgb(100%,100%,100%);fill-opacity:1;" d="M 7.242188 34.917969 C 7.242188 34.917969 13.714844 30.65625 12.199219 21.789062 C 10.738281 15.339844 7.296875 13.226562 6.917969 12.414062 C 6.503906 11.835938 6.105469 10.824219 6.105469 10.824219 L 6.378906 28.757812 C 6.378906 28.777344 5.820312 34.25 7.242188 34.917969 "/>
<path style=" stroke:none;fill-rule:evenodd;fill:rgb(28.627451%,61.568627%,29.019608%);fill-opacity:1;" d="M 7.242188 34.917969 C 7.242188 34.917969 13.714844 30.65625 12.199219 21.789062 C 10.738281 15.339844 7.296875 13.226562 6.917969 12.414062 C 6.503906 11.835938 6.105469 10.824219 6.105469 10.824219 L 6.378906 28.757812 C 6.378906 28.777344 5.820312 34.25 7.242188 34.917969 "/>
<path style=" stroke:none;fill-rule:evenodd;fill:rgb(100%,100%,100%);fill-opacity:1;" d="M 5.730469 35.152344 C 5.730469 35.152344 -0.34375 30.996094 0.015625 23.683594 C 0.359375 16.371094 4.648438 12.777344 5.476562 12.125 C 6.019531 11.550781 6.035156 11.332031 6.070312 10.753906 C 6.449219 11.566406 6.378906 22.90625 6.433594 24.246094 C 6.59375 29.390625 6.144531 34.175781 5.730469 35.152344 Z M 5.730469 35.152344 "/>
<path style=" stroke:none;fill-rule:evenodd;fill:rgb(34.509804%,66.666667%,31.372549%);fill-opacity:1;" d="M 5.730469 35.152344 C 5.730469 35.152344 -0.34375 30.996094 0.015625 23.683594 C 0.359375 16.371094 4.648438 12.777344 5.476562 12.125 C 6.019531 11.550781 6.035156 11.332031 6.070312 10.753906 C 6.449219 11.566406 6.378906 22.90625 6.433594 24.246094 C 6.59375 29.390625 6.144531 34.175781 5.730469 35.152344 Z M 5.730469 35.152344 "/>
</g>
</svg>
