<?xml version="1.0" encoding="UTF-8"?>
<svg xmlns="http://www.w3.org/2000/svg" xmlns:xlink="http://www.w3.org/1999/xlink" width="100px" height="px" viewBox="0 0 100 50" version="1.1">
<defs>
<clipPath id="clip1">
  <path d="M 30.25 11 L 48.25 11 L 48.25 31.5 L 30.25 31.5 Z M 30.25 11 "/>
</clipPath>
<clipPath id="clip2">
  <path d="M 38.851562 11.558594 L 31.09375 16.046875 C 30.804688 16.21875 30.625 16.527344 30.625 16.863281 L 30.625 25.851562 C 30.625 26.1875 30.804688 26.496094 31.09375 26.664062 L 38.851562 31.15625 C 39.140625 31.328125 39.5 31.328125 39.789062 31.15625 L 47.546875 26.664062 C 47.835938 26.496094 48.015625 26.1875 48.015625 25.851562 L 48.015625 16.863281 C 48.015625 16.527344 47.835938 16.21875 47.546875 16.046875 L 39.789062 11.558594 C 39.644531 11.476562 39.484375 11.433594 39.320312 11.433594 C 39.15625 11.433594 38.996094 11.476562 38.851562 11.558594 "/>
</clipPath>
<linearGradient id="linear0" gradientUnits="userSpaceOnUse" x1="-0.348" y1="0" x2="1.251" y2="0" gradientTransform="matrix(-7.010813,14.340163,-14.302003,-7.029519,42.479429,14.887033)">
<stop offset="0.3" style="stop-color:rgb(24.313725%,52.54902%,23.921569%);stop-opacity:1;"/>
<stop offset="0.5" style="stop-color:rgb(33.333333%,57.647059%,30.980392%);stop-opacity:1;"/>
<stop offset="0.8" style="stop-color:rgb(35.294118%,67.843137%,27.058824%);stop-opacity:1;"/>
</linearGradient>
<clipPath id="clip3">
  <path d="M 30.75 11 L 48 11 L 48 31.5 L 30.75 31.5 Z M 30.75 11 "/>
</clipPath>
<clipPath id="clip4">
  <path d="M 30.816406 26.421875 C 30.890625 26.515625 30.984375 26.601562 31.09375 26.664062 L 37.75 30.519531 L 38.859375 31.15625 C 39.023438 31.253906 39.210938 31.296875 39.398438 31.28125 C 39.460938 31.273438 39.523438 31.265625 39.582031 31.246094 L 47.765625 16.222656 C 47.703125 16.15625 47.632812 16.09375 47.546875 16.046875 L 42.46875 13.109375 L 39.78125 11.554688 C 39.703125 11.515625 39.625 11.484375 39.539062 11.460938 Z M 30.816406 26.421875 "/>
</clipPath>
<linearGradient id="linear1" gradientUnits="userSpaceOnUse" x1="-0.456" y1="0" x2="0.582" y2="0" gradientTransform="matrix(19.671522,-14.5737,14.534919,19.724009,38.14474,22.415245)">
<stop offset="0.57" style="stop-color:rgb(24.313725%,52.54902%,23.921569%);stop-opacity:1;"/>
<stop offset="0.72" style="stop-color:rgb(38.039216%,59.607843%,34.117647%);stop-opacity:1;"/>
<stop offset="1" style="stop-color:rgb(46.27451%,67.45098%,39.215686%);stop-opacity:1;"/>
</linearGradient>
<clipPath id="clip5">
  <path d="M 31 11 L 48 11 L 48 31.5 L 31 31.5 Z M 31 11 "/>
</clipPath>
<clipPath id="clip6">
  <path d="M 39.226562 11.4375 C 39.097656 11.453125 38.96875 11.492188 38.851562 11.558594 L 31.117188 16.039062 L 39.460938 31.273438 C 39.574219 31.257812 39.6875 31.21875 39.789062 31.15625 L 47.550781 26.664062 C 47.789062 26.523438 47.953125 26.289062 48.003906 26.023438 L 39.5 11.453125 C 39.4375 11.441406 39.375 11.433594 39.308594 11.433594 C 39.28125 11.433594 39.257812 11.4375 39.234375 11.4375 "/>
</clipPath>
<linearGradient id="linear2" gradientUnits="userSpaceOnUse" x1="0.043" y1="0" x2="0.984" y2="0" gradientTransform="matrix(17.942307,0,0,17.990179,30.349074,21.354716)">
<stop offset="0.16" style="stop-color:rgb(41.960784%,74.901961%,27.843137%);stop-opacity:1;"/>
<stop offset="0.38" style="stop-color:rgb(47.45098%,70.588235%,38.039216%);stop-opacity:1;"/>
<stop offset="0.47" style="stop-color:rgb(45.882353%,67.45098%,39.215686%);stop-opacity:1;"/>
<stop offset="0.7" style="stop-color:rgb(39.607843%,61.960784%,35.294118%);stop-opacity:1;"/>
<stop offset="0.9" style="stop-color:rgb(24.313725%,52.54902%,23.921569%);stop-opacity:1;"/>
</linearGradient>
</defs>
<g id="surface1">
<path style=" stroke:none;fill-rule:nonzero;fill:rgb(40.784314%,62.352941%,38.823529%);fill-opacity:1;" d="M 49.523438 50.03125 C 49.25 50.03125 48.984375 49.960938 48.75 49.828125 L 46.292969 48.367188 C 45.925781 48.164062 46.105469 48.089844 46.226562 48.046875 C 46.714844 47.875 46.8125 47.835938 47.335938 47.539062 C 47.390625 47.507812 47.460938 47.519531 47.519531 47.554688 L 49.40625 48.675781 C 49.476562 48.710938 49.570312 48.710938 49.632812 48.675781 L 56.992188 44.417969 C 57.0625 44.378906 57.105469 44.296875 57.105469 44.21875 L 57.105469 35.703125 C 57.105469 35.617188 57.0625 35.542969 56.992188 35.5 L 49.632812 31.246094 C 49.570312 31.203125 49.476562 31.203125 49.40625 31.246094 L 42.054688 35.5 C 41.984375 35.539062 41.9375 35.621094 41.9375 35.703125 L 41.9375 44.214844 C 41.9375 44.296875 41.984375 44.375 42.054688 44.414062 L 44.070312 45.578125 C 45.164062 46.128906 45.828125 45.484375 45.828125 44.832031 L 45.828125 36.429688 C 45.828125 36.3125 45.921875 36.21875 46.046875 36.21875 L 46.976562 36.21875 C 47.09375 36.21875 47.1875 36.3125 47.1875 36.429688 L 47.1875 44.835938 C 47.1875 46.296875 46.390625 47.140625 45.007812 47.140625 C 44.585938 47.140625 44.25 47.140625 43.3125 46.679688 L 41.382812 45.5625 C 40.90625 45.285156 40.609375 44.765625 40.609375 44.214844 L 40.609375 35.703125 C 40.609375 35.148438 40.90625 34.632812 41.382812 34.359375 L 48.75 30.097656 C 49.214844 29.835938 49.832031 29.835938 50.296875 30.097656 L 57.652344 34.359375 C 58.125 34.632812 58.421875 35.148438 58.421875 35.703125 L 58.421875 44.21875 C 58.421875 44.769531 58.125 45.285156 57.652344 45.5625 L 50.296875 49.820312 C 50.058594 49.960938 49.792969 50.03125 49.519531 50.03125 "/>
<path style=" stroke:none;fill-rule:nonzero;fill:rgb(40.784314%,62.352941%,38.823529%);fill-opacity:1;" d="M 51.792969 44.164062 C 48.574219 44.164062 47.898438 42.6875 47.898438 41.441406 C 47.898438 41.324219 47.992188 41.230469 48.109375 41.230469 L 49.0625 41.230469 C 49.167969 41.230469 49.257812 41.304688 49.273438 41.410156 C 49.414062 42.382812 49.84375 42.871094 51.789062 42.871094 C 53.34375 42.871094 54 42.519531 54 41.695312 C 54 41.21875 53.8125 40.867188 51.402344 40.632812 C 49.390625 40.429688 48.140625 39.984375 48.140625 38.371094 C 48.140625 36.882812 49.398438 35.996094 51.492188 35.996094 C 53.851562 35.996094 55.015625 36.816406 55.164062 38.578125 C 55.171875 38.640625 55.148438 38.695312 55.109375 38.742188 C 55.066406 38.785156 55.007812 38.8125 54.953125 38.8125 L 53.992188 38.8125 C 53.894531 38.8125 53.808594 38.742188 53.789062 38.644531 C 53.558594 37.625 53 37.296875 51.492188 37.296875 C 49.796875 37.296875 49.601562 37.886719 49.601562 38.328125 C 49.601562 38.867188 49.832031 39.023438 52.117188 39.328125 C 54.375 39.628906 55.453125 40.054688 55.453125 41.648438 C 55.453125 43.253906 54.117188 44.175781 51.78125 44.175781 M 60.742188 35.148438 L 60.992188 35.148438 C 61.195312 35.148438 61.234375 35.003906 61.234375 34.921875 C 61.234375 34.703125 61.085938 34.703125 61 34.703125 L 60.746094 34.703125 Z M 60.445312 34.449219 L 60.992188 34.449219 C 61.179688 34.449219 61.546875 34.449219 61.546875 34.867188 C 61.546875 35.164062 61.359375 35.226562 61.25 35.261719 C 61.46875 35.273438 61.484375 35.421875 61.511719 35.625 C 61.523438 35.75 61.546875 35.96875 61.59375 36.046875 L 61.257812 36.046875 C 61.25 35.96875 61.195312 35.5625 61.195312 35.542969 C 61.171875 35.453125 61.140625 35.40625 61.03125 35.40625 L 60.75 35.40625 L 60.75 36.046875 L 60.445312 36.046875 Z M 59.789062 35.242188 C 59.789062 35.90625 60.320312 36.4375 60.972656 36.4375 C 61.632812 36.4375 62.164062 35.890625 62.164062 35.242188 C 62.164062 34.578125 61.625 34.054688 60.96875 34.054688 C 60.328125 34.054688 59.785156 34.570312 59.785156 35.242188 M 62.390625 35.246094 C 62.390625 36.03125 61.753906 36.667969 60.976562 36.667969 C 60.203125 36.667969 59.554688 36.039062 59.554688 35.246094 C 59.554688 34.441406 60.21875 33.824219 60.976562 33.824219 C 61.742188 33.824219 62.390625 34.445312 62.390625 35.246094 "/>
<path style=" stroke:none;fill-rule:evenodd;fill:rgb(20%,20%,20%);fill-opacity:1;" d="M 26.734375 16.722656 C 26.734375 16.382812 26.554688 16.070312 26.265625 15.898438 L 18.460938 11.398438 C 18.332031 11.320312 18.183594 11.28125 18.035156 11.277344 L 17.953125 11.277344 C 17.804688 11.28125 17.65625 11.320312 17.523438 11.398438 L 9.722656 15.898438 C 9.429688 16.070312 9.25 16.382812 9.25 16.722656 L 9.265625 28.84375 C 9.265625 29.015625 9.351562 29.171875 9.5 29.253906 C 9.644531 29.34375 9.828125 29.34375 9.96875 29.253906 L 14.609375 26.589844 C 14.898438 26.414062 15.078125 26.109375 15.078125 25.769531 L 15.078125 20.109375 C 15.078125 19.769531 15.257812 19.457031 15.546875 19.289062 L 17.523438 18.148438 C 17.671875 18.0625 17.828125 18.023438 17.992188 18.023438 C 18.15625 18.023438 18.320312 18.0625 18.460938 18.148438 L 20.4375 19.289062 C 20.726562 19.457031 20.90625 19.769531 20.90625 20.109375 L 20.90625 25.769531 C 20.90625 26.105469 21.089844 26.414062 21.382812 26.589844 L 26.015625 29.25 C 26.160156 29.335938 26.34375 29.335938 26.484375 29.25 C 26.628906 29.167969 26.71875 29.007812 26.71875 28.84375 Z M 63.546875 23.03125 C 63.546875 23.117188 63.5 23.195312 63.429688 23.238281 L 60.75 24.789062 C 60.679688 24.828125 60.585938 24.828125 60.515625 24.789062 L 57.835938 23.238281 C 57.761719 23.195312 57.71875 23.117188 57.71875 23.03125 L 57.71875 19.929688 C 57.71875 19.847656 57.761719 19.769531 57.835938 19.726562 L 60.511719 18.175781 C 60.585938 18.132812 60.675781 18.132812 60.75 18.175781 L 63.429688 19.726562 C 63.5 19.769531 63.546875 19.847656 63.546875 19.929688 Z M 64.273438 0.0625 C 64.125 -0.0234375 63.945312 -0.0195312 63.804688 0.0625 C 63.65625 0.148438 63.570312 0.304688 63.570312 0.472656 L 63.570312 12.476562 C 63.570312 12.59375 63.507812 12.703125 63.40625 12.765625 C 63.304688 12.820312 63.179688 12.820312 63.078125 12.765625 L 61.121094 11.632812 C 60.828125 11.464844 60.472656 11.464844 60.179688 11.632812 L 52.375 16.148438 C 52.085938 16.320312 51.90625 16.632812 51.90625 16.96875 L 51.90625 26 C 51.90625 26.335938 52.085938 26.648438 52.375 26.820312 L 60.179688 31.335938 C 60.46875 31.507812 60.828125 31.507812 61.125 31.335938 L 68.925781 26.816406 C 69.21875 26.648438 69.398438 26.335938 69.398438 26 L 69.398438 3.484375 C 69.398438 3.140625 69.210938 2.828125 68.914062 2.65625 Z M 90.257812 19.851562 C 90.546875 19.679688 90.726562 19.367188 90.726562 19.03125 L 90.726562 16.84375 C 90.726562 16.507812 90.546875 16.195312 90.257812 16.027344 L 82.5 11.515625 C 82.210938 11.34375 81.851562 11.34375 81.558594 11.515625 L 73.757812 16.03125 C 73.460938 16.199219 73.285156 16.507812 73.285156 16.847656 L 73.285156 25.875 C 73.285156 26.21875 73.46875 26.53125 73.757812 26.699219 L 81.511719 31.128906 C 81.796875 31.292969 82.148438 31.296875 82.4375 31.132812 L 87.125 28.523438 C 87.273438 28.4375 87.367188 28.28125 87.367188 28.109375 C 87.367188 27.941406 87.277344 27.78125 87.128906 27.699219 L 79.28125 23.183594 C 79.132812 23.101562 79.042969 22.945312 79.042969 22.773438 L 79.042969 19.941406 C 79.042969 19.773438 79.132812 19.617188 79.277344 19.53125 L 81.71875 18.117188 C 81.867188 18.035156 82.046875 18.035156 82.1875 18.117188 L 84.632812 19.53125 C 84.78125 19.617188 84.867188 19.773438 84.867188 19.941406 L 84.867188 22.167969 C 84.867188 22.335938 84.960938 22.492188 85.105469 22.578125 C 85.25 22.660156 85.429688 22.660156 85.578125 22.578125 Z M 90.257812 19.851562 "/>
<path style=" stroke:none;fill-rule:evenodd;fill:rgb(40.784314%,62.352941%,38.823529%);fill-opacity:1;" d="M 81.914062 19.429688 C 81.96875 19.394531 82.039062 19.394531 82.097656 19.429688 L 83.59375 20.292969 C 83.648438 20.328125 83.683594 20.386719 83.683594 20.453125 L 83.683594 22.1875 C 83.683594 22.25 83.648438 22.308594 83.59375 22.34375 L 82.097656 23.207031 C 82.039062 23.242188 81.96875 23.242188 81.914062 23.207031 L 80.421875 22.34375 C 80.363281 22.308594 80.328125 22.25 80.328125 22.1875 L 80.328125 20.453125 C 80.328125 20.386719 80.359375 20.328125 80.417969 20.292969 Z M 81.914062 19.429688 "/>
<g clip-path="url(#clip1)" clip-rule="nonzero">
<g clip-path="url(#clip2)" clip-rule="nonzero">
<path style=" stroke:none;fill-rule:nonzero;fill:url(#linear0);" d="M 55.859375 15.289062 L 33.992188 4.539062 L 22.78125 27.472656 L 44.648438 38.21875 Z M 55.859375 15.289062 "/>
</g>
</g>
<g clip-path="url(#clip3)" clip-rule="nonzero">
<g clip-path="url(#clip4)" clip-rule="nonzero">
<path style=" stroke:none;fill-rule:nonzero;fill:url(#linear1);" d="M 21.363281 18.464844 L 36.800781 39.414062 L 57.21875 24.289062 L 41.78125 3.339844 Z M 21.363281 18.464844 "/>
</g>
</g>
<g clip-path="url(#clip5)" clip-rule="nonzero">
<g clip-path="url(#clip6)" clip-rule="nonzero">
<path style=" stroke:none;fill-rule:nonzero;fill:url(#linear2);" d="M 31.117188 11.433594 L 31.117188 31.273438 L 48 31.273438 L 48 11.433594 Z M 31.117188 11.433594 "/>
</g>
</g>
</g>
</svg>
