<?xml version="1.0" encoding="UTF-8"?>
<svg xmlns="http://www.w3.org/2000/svg" xmlns:xlink="http://www.w3.org/1999/xlink" width="100px" height="px" viewBox="0 0 100 50" version="1.1">
<g id="surface1">
<path style=" stroke:none;fill-rule:nonzero;fill:rgb(100%,100%,100%);fill-opacity:1;" d="M 22.414062 24.945312 C 22.414062 29.125 26.480469 33.023438 32.894531 35.21875 C 31.613281 41.6875 32.664062 46.894531 36.175781 48.925781 C 39.78125 51.011719 45.160156 49.570312 50.265625 45.09375 C 55.234375 49.386719 60.265625 51.078125 63.773438 49.039062 C 67.375 46.945312 68.472656 41.382812 67.15625 34.71875 C 73.835938 32.5 77.570312 29.179688 77.570312 24.945312 C 77.570312 20.867188 73.5 17.335938 67.171875 15.152344 C 68.585938 8.210938 67.390625 3.125 63.734375 1.011719 C 60.207031 -1.027344 55.121094 0.75 50.074219 5.15625 C 44.824219 0.476562 39.789062 -0.945312 36.132812 1.171875 C 32.613281 3.21875 31.609375 8.523438 32.894531 15.105469 C 26.695312 17.273438 22.414062 20.882812 22.414062 24.945312 Z M 22.414062 24.945312 "/>
<path style=" stroke:none;fill-rule:nonzero;fill:rgb(32.54902%,75.686275%,87.058824%);fill-opacity:1;" d="M 65.832031 17.320312 C 65.324219 17.144531 64.796875 16.976562 64.253906 16.820312 C 64.34375 16.457031 64.425781 16.097656 64.5 15.742188 C 65.691406 9.933594 64.914062 5.25 62.246094 3.710938 C 59.691406 2.234375 55.511719 3.773438 51.289062 7.457031 C 50.882812 7.8125 50.476562 8.1875 50.070312 8.578125 C 49.796875 8.320312 49.53125 8.070312 49.257812 7.828125 C 44.835938 3.890625 40.398438 2.230469 37.738281 3.773438 C 35.1875 5.257812 34.429688 9.65625 35.503906 15.164062 C 35.609375 15.695312 35.726562 16.242188 35.867188 16.789062 C 35.238281 16.96875 34.632812 17.160156 34.054688 17.363281 C 28.867188 19.175781 25.554688 22.015625 25.554688 24.964844 C 25.554688 28.007812 29.109375 31.0625 34.511719 32.914062 C 34.9375 33.0625 35.382812 33.199219 35.835938 33.328125 C 35.6875 33.929688 35.5625 34.515625 35.453125 35.085938 C 34.429688 40.492188 35.226562 44.789062 37.773438 46.265625 C 40.40625 47.785156 44.820312 46.21875 49.117188 42.453125 C 49.453125 42.15625 49.796875 41.839844 50.140625 41.507812 C 50.578125 41.9375 51.023438 42.34375 51.460938 42.71875 C 55.625 46.3125 59.738281 47.765625 62.28125 46.289062 C 64.90625 44.761719 65.765625 40.148438 64.65625 34.53125 C 64.570312 34.101562 64.46875 33.664062 64.359375 33.21875 C 64.671875 33.125 64.976562 33.03125 65.273438 32.933594 C 70.886719 31.066406 74.539062 28.050781 74.539062 24.964844 C 74.539062 22.007812 71.125 19.148438 65.832031 17.320312 Z M 65.832031 17.320312 "/>
<path style=" stroke:none;fill-rule:nonzero;fill:rgb(100%,100%,100%);fill-opacity:1;" d="M 64.613281 30.941406 C 64.34375 31.03125 64.070312 31.117188 63.789062 31.199219 C 63.171875 29.230469 62.335938 27.140625 61.3125 24.976562 C 62.289062 22.867188 63.09375 20.796875 63.695312 18.84375 C 64.195312 18.992188 64.679688 19.140625 65.148438 19.304688 C 69.683594 20.867188 72.449219 23.183594 72.449219 24.964844 C 72.449219 26.867188 69.460938 29.328125 64.613281 30.941406 Z M 62.601562 34.9375 C 63.09375 37.421875 63.164062 39.664062 62.835938 41.421875 C 62.546875 43 61.960938 44.050781 61.234375 44.46875 C 59.6875 45.367188 56.390625 44.203125 52.828125 41.132812 C 52.421875 40.777344 52.007812 40.402344 51.59375 40.003906 C 52.976562 38.492188 54.355469 36.730469 55.703125 34.773438 C 58.070312 34.5625 60.304688 34.21875 62.335938 33.75 C 62.4375 34.15625 62.523438 34.550781 62.601562 34.9375 Z M 42.257812 44.316406 C 40.746094 44.851562 39.546875 44.867188 38.820312 44.445312 C 37.273438 43.554688 36.632812 40.101562 37.507812 35.476562 C 37.609375 34.945312 37.726562 34.398438 37.867188 33.84375 C 39.875 34.289062 42.09375 34.609375 44.46875 34.804688 C 45.820312 36.714844 47.242188 38.472656 48.671875 40.011719 C 48.359375 40.3125 48.046875 40.601562 47.738281 40.875 C 45.835938 42.539062 43.933594 43.71875 42.257812 44.316406 Z M 35.1875 30.929688 C 32.800781 30.109375 30.828125 29.046875 29.476562 27.882812 C 28.257812 26.84375 27.648438 25.804688 27.648438 24.964844 C 27.648438 23.179688 30.304688 20.898438 34.742188 19.34375 C 35.28125 19.15625 35.84375 18.980469 36.429688 18.8125 C 37.039062 20.8125 37.84375 22.902344 38.816406 25.015625 C 37.832031 27.164062 37.015625 29.285156 36.398438 31.308594 C 35.980469 31.1875 35.578125 31.0625 35.1875 30.929688 Z M 37.558594 14.761719 C 36.636719 10.042969 37.25 6.484375 38.789062 5.59375 C 40.425781 4.640625 44.050781 5.996094 47.867188 9.398438 C 48.113281 9.617188 48.359375 9.84375 48.601562 10.078125 C 47.179688 11.609375 45.773438 13.355469 44.429688 15.257812 C 42.125 15.46875 39.921875 15.8125 37.894531 16.273438 C 37.765625 15.757812 37.65625 15.257812 37.558594 14.761719 Z M 58.6875 19.992188 C 58.203125 19.15625 57.703125 18.335938 57.199219 17.539062 C 58.761719 17.734375 60.257812 18 61.664062 18.320312 C 61.242188 19.679688 60.71875 21.09375 60.097656 22.546875 C 59.652344 21.703125 59.183594 20.851562 58.6875 19.992188 Z M 50.070312 11.578125 C 51.039062 12.625 52.003906 13.796875 52.953125 15.066406 C 51.996094 15.023438 51.023438 15 50.046875 15 C 49.078125 15 48.117188 15.023438 47.164062 15.066406 C 48.117188 13.804688 49.09375 12.640625 50.070312 11.578125 Z M 41.398438 20.007812 C 40.914062 20.851562 40.453125 21.699219 40.015625 22.546875 C 39.40625 21.101562 38.882812 19.671875 38.460938 18.296875 C 39.859375 17.984375 41.347656 17.726562 42.898438 17.53125 C 42.386719 18.335938 41.882812 19.164062 41.398438 20.007812 Z M 42.945312 32.546875 C 41.34375 32.367188 39.828125 32.125 38.429688 31.820312 C 38.863281 30.421875 39.398438 28.964844 40.019531 27.484375 C 40.457031 28.332031 40.921875 29.179688 41.40625 30.023438 C 41.90625 30.882812 42.417969 31.726562 42.945312 32.546875 Z M 50.128906 38.5 C 49.136719 37.429688 48.148438 36.242188 47.179688 34.964844 C 48.117188 35 49.078125 35.023438 50.046875 35.023438 C 51.046875 35.023438 52.03125 35 53.007812 34.953125 C 52.050781 36.253906 51.085938 37.445312 50.128906 38.5 Z M 60.117188 27.40625 C 60.773438 28.90625 61.324219 30.351562 61.761719 31.726562 C 60.34375 32.054688 58.808594 32.316406 57.195312 32.507812 C 57.703125 31.703125 58.203125 30.867188 58.695312 30.007812 C 59.195312 29.140625 59.671875 28.273438 60.117188 27.40625 Z M 56.882812 28.960938 C 56.117188 30.292969 55.332031 31.5625 54.53125 32.765625 C 53.078125 32.867188 51.578125 32.921875 50.046875 32.921875 C 48.523438 32.921875 47.039062 32.875 45.613281 32.78125 C 44.78125 31.566406 43.976562 30.289062 43.21875 28.976562 C 42.460938 27.660156 41.761719 26.335938 41.128906 25.015625 C 41.761719 23.695312 42.457031 22.367188 43.210938 21.054688 C 43.96875 19.742188 44.765625 18.472656 45.585938 17.265625 C 47.046875 17.15625 48.539062 17.09375 50.046875 17.09375 C 51.5625 17.09375 53.0625 17.15625 54.515625 17.265625 C 55.328125 18.464844 56.117188 19.726562 56.875 21.046875 C 57.644531 22.375 58.351562 23.695312 58.988281 24.984375 C 58.351562 26.300781 57.648438 27.632812 56.882812 28.960938 Z M 61.203125 5.53125 C 62.84375 6.476562 63.476562 10.304688 62.449219 15.320312 C 62.382812 15.640625 62.308594 15.96875 62.226562 16.296875 C 60.195312 15.828125 57.988281 15.476562 55.679688 15.257812 C 54.332031 13.335938 52.9375 11.589844 51.539062 10.078125 C 51.914062 9.710938 52.289062 9.367188 52.664062 9.039062 C 56.28125 5.882812 59.660156 4.640625 61.203125 5.53125 Z M 61.203125 5.53125 "/>
<path style=" stroke:none;fill-rule:nonzero;fill:rgb(32.54902%,75.686275%,87.058824%);fill-opacity:1;" d="M 50.046875 20.578125 C 52.460938 20.578125 54.421875 22.542969 54.421875 24.964844 C 54.421875 27.390625 52.460938 29.351562 50.046875 29.351562 C 47.632812 29.351562 45.671875 27.390625 45.671875 24.964844 C 45.671875 22.542969 47.632812 20.578125 50.046875 20.578125 "/>
</g>
</svg>
