<?xml version="1.0" encoding="UTF-8"?>
<svg xmlns="http://www.w3.org/2000/svg" xmlns:xlink="http://www.w3.org/1999/xlink" width="100px" height="px" viewBox="0 0 100 50" version="1.1">
<g id="surface1">
<path style=" stroke:none;fill-rule:nonzero;fill:rgb(46.27451%,29.019608%,73.72549%);fill-opacity:1;" d="M 60.03125 34.78125 C 61.949219 34.578125 63.40625 32.914062 63.339844 30.90625 C 63.273438 28.90625 61.617188 27.304688 59.632812 27.304688 L 59.5 27.304688 C 57.449219 27.371094 55.859375 29.105469 55.929688 31.175781 C 55.992188 32.179688 56.390625 33.046875 56.984375 33.648438 C 54.734375 38.117188 51.296875 41.390625 46.132812 44.125 C 42.625 45.992188 38.988281 46.664062 35.347656 46.195312 C 32.371094 45.796875 30.054688 44.460938 28.597656 42.257812 C 26.480469 38.984375 26.28125 35.445312 28.070312 31.910156 C 29.328125 29.375 31.3125 27.503906 32.570312 26.570312 C 32.304688 25.703125 31.90625 24.234375 31.710938 23.164062 C 22.113281 30.171875 23.109375 39.65625 26.015625 44.125 C 28.203125 47.460938 32.632812 49.53125 37.53125 49.53125 C 38.855469 49.53125 40.179688 49.398438 41.5 49.066406 C 49.972656 47.398438 56.390625 42.324219 60.03125 34.78125 Z M 71.679688 26.503906 C 66.648438 20.5625 59.234375 17.289062 50.765625 17.289062 L 49.707031 17.289062 C 49.109375 16.089844 47.855469 15.289062 46.464844 15.289062 L 46.332031 15.289062 C 44.28125 15.355469 42.695312 17.089844 42.757812 19.160156 C 42.828125 21.164062 44.480469 22.765625 46.464844 22.765625 L 46.597656 22.765625 C 48.054688 22.695312 49.3125 21.765625 49.839844 20.496094 L 51.03125 20.496094 C 56.0625 20.496094 60.824219 21.960938 65.125 24.835938 C 68.433594 27.039062 70.816406 29.90625 72.140625 33.378906 C 73.265625 36.179688 73.199219 38.921875 72.007812 41.257812 C 70.15625 44.792969 67.046875 46.726562 62.941406 46.726562 C 60.296875 46.726562 57.78125 45.929688 56.457031 45.328125 C 55.726562 45.992188 54.40625 47.0625 53.476562 47.730469 C 56.324219 49.066406 59.234375 49.800781 62.015625 49.800781 C 68.367188 49.800781 73.066406 46.261719 74.851562 42.726562 C 76.773438 38.851562 76.640625 32.179688 71.679688 26.503906 Z M 38.0625 35.914062 C 38.125 37.917969 39.78125 39.519531 41.765625 39.519531 L 41.898438 39.519531 C 43.953125 39.453125 45.539062 37.71875 45.472656 35.648438 C 45.40625 33.644531 43.75 32.042969 41.765625 32.042969 L 41.632812 32.042969 C 41.5 32.042969 41.304688 32.042969 41.171875 32.109375 C 38.460938 27.570312 37.335938 22.632812 37.730469 17.289062 C 37.992188 13.285156 39.320312 9.8125 41.632812 6.945312 C 43.554688 4.476562 47.257812 3.273438 49.773438 3.203125 C 56.789062 3.070312 59.765625 11.882812 59.964844 15.421875 C 60.824219 15.621094 62.28125 16.089844 63.273438 16.421875 C 62.476562 5.609375 55.859375 0.00390625 49.507812 0.00390625 C 43.554688 0.00390625 38.0625 4.34375 35.875 10.75 C 32.835938 19.292969 34.820312 27.503906 38.523438 33.976562 C 38.195312 34.445312 37.992188 35.179688 38.0625 35.914062 Z M 38.0625 35.914062 "/>
</g>
</svg>
